<svg width="22" height="19" viewBox="0 0 22 19" fill="none" xmlns="http://www.w3.org/2000/svg">
<path d="M21.0736 0.178493C20.2862 0.0625063 19.4888 0.00280386 18.6898 4.08668e-06C15.9636 -0.00190713 13.2943 0.666587 11 1.9258C8.69981 0.68312 6.03091 0.0310337 3.3102 0.0469747C2.51117 0.0497745 1.71381 0.109477 0.926366 0.225463C0.668435 0.263489 0.434857 0.379018 0.267694 0.551245C0.100532 0.723472 0.0107707 0.941078 0.0145757 1.16488V12.4378C0.012223 12.5759 0.0454735 12.7126 0.111961 12.8384C0.178449 12.9642 0.276541 13.076 0.399256 13.1656C0.521971 13.2553 0.666294 13.3208 0.821956 13.3574C0.977618 13.3939 1.14079 13.4007 1.29987 13.3773C2.8741 13.1442 4.48696 13.1828 6.04345 13.491C7.59993 13.7991 9.06857 14.3705 10.3628 15.1715L10.4947 15.2373H10.6155C10.7373 15.2807 10.868 15.303 11 15.303C11.132 15.303 11.2627 15.2807 11.3845 15.2373H11.5053L11.6372 15.1715C12.9224 14.3526 14.3868 13.7627 15.9436 13.4368C17.5004 13.1108 19.1179 13.0554 20.7001 13.2739C20.8592 13.2974 21.0224 13.2906 21.178 13.254C21.3337 13.2175 21.478 13.152 21.6007 13.0623C21.7235 12.9726 21.8216 12.8609 21.888 12.7351C21.9545 12.6093 21.9878 12.4725 21.9854 12.3345V1.06154C21.974 0.847499 21.8773 0.64323 21.7115 0.482616C21.5457 0.322002 21.3206 0.214695 21.0736 0.178493ZM9.90146 12.6633C7.86903 11.749 5.60673 11.2718 3.3102 11.273C2.94768 11.273 2.58517 11.273 2.21166 11.273V1.87883C2.57754 1.8608 2.94433 1.8608 3.3102 1.87883C5.65382 1.87662 7.94629 2.46473 9.90146 3.56978V12.6633ZM19.7883 11.3105C19.4148 11.3105 19.0523 11.3105 18.6898 11.3105C16.3933 11.3093 14.131 11.7865 12.0985 12.7009V3.56978C14.0537 2.46473 16.3462 1.87662 18.6898 1.87883C19.0557 1.8608 19.4225 1.8608 19.7883 1.87883V11.3105ZM21.0736 15.2091C20.2862 15.0931 19.4888 15.0334 18.6898 15.0306C15.9636 15.0287 13.2943 15.6972 11 16.9564C8.70571 15.6972 6.03638 15.0287 3.3102 15.0306C2.51117 15.0334 1.71381 15.0931 0.926366 15.2091C0.783366 15.2285 0.646262 15.2719 0.52294 15.3368C0.399617 15.4017 0.292508 15.4867 0.207773 15.5871C0.123037 15.6875 0.0623463 15.8013 0.0291905 15.9218C-0.00396537 16.0423 -0.00893213 16.1673 0.0145757 16.2894C0.0704022 16.5334 0.23702 16.7485 0.47793 16.8876C0.718841 17.0267 1.0144 17.0785 1.29987 17.0316C2.8741 16.7985 4.48696 16.8372 6.04345 17.1453C7.59993 17.4535 9.06857 18.0249 10.3628 18.8258C10.5489 18.9391 10.7716 19 11 19C11.2284 19 11.4511 18.9391 11.6372 18.8258C12.9314 18.0249 14.4001 17.4535 15.9566 17.1453C17.513 16.8372 19.1259 16.7985 20.7001 17.0316C20.9856 17.0785 21.2812 17.0267 21.5221 16.8876C21.763 16.7485 21.9296 16.5334 21.9854 16.2894C22.0089 16.1673 22.004 16.0423 21.9708 15.9218C21.9377 15.8013 21.877 15.6875 21.7922 15.5871C21.7075 15.4867 21.6004 15.4017 21.4771 15.3368C21.3537 15.2719 21.2166 15.2285 21.0736 15.2091Z" fill="#F6F6F6"/>
</svg>
