<svg width="22" height="22" viewBox="0 0 22 22" fill="none" xmlns="http://www.w3.org/2000/svg">
<path fill-rule="evenodd" clip-rule="evenodd" d="M1.22222 12.2222C0.898166 12.2222 0.58724 12.351 0.358073 12.5801C0.20619 12.732 0.0984701 12.9197 0.0429688 13.1235C0.0146213 13.2272 0 13.3351 0 13.4444V20.7778C0 20.9377 0.0313314 21.0944 0.0907118 21.2395C0.151584 21.3887 0.241998 21.5259 0.358073 21.6421C0.58724 21.8712 0.898166 22 1.22222 22H8.55556C8.87961 22 9.19054 21.8712 9.4197 21.6421C9.64887 21.4128 9.77778 21.102 9.77778 20.7778V13.4444C9.77778 13.1202 9.64887 12.8095 9.4197 12.5801C9.19054 12.351 8.87961 12.2222 8.55556 12.2222H1.22222ZM13.4444 0C13.1204 0 12.8095 0.128757 12.5803 0.357924C12.3511 0.58724 12.2222 0.898017 12.2222 1.22222V8.55556C12.2222 8.751 12.2691 8.94153 12.3565 9.11236C12.4141 9.22485 12.4893 9.32884 12.5803 9.41985C12.8095 9.64902 13.1204 9.77778 13.4444 9.77778H20.7778C21.1018 9.77778 21.4128 9.64902 21.6419 9.41985C21.8711 9.19054 22 8.87976 22 8.55556V1.22222C22 0.898017 21.8711 0.58724 21.6419 0.357924C21.4128 0.128757 21.1018 0 20.7778 0H13.4444ZM1.22222 0C0.898166 0 0.58724 0.128757 0.358073 0.357924C0.231554 0.484443 0.135769 0.635729 0.0751953 0.800293C0.0259603 0.934123 0 1.07676 0 1.22222V8.55556C0 8.69864 0.0250651 8.83918 0.0728082 8.97122C0.133382 9.13832 0.230062 9.29184 0.358073 9.41985C0.58724 9.64902 0.898166 9.77778 1.22222 9.77778H8.55556C8.62956 9.77778 8.70296 9.77106 8.77487 9.75808C8.84828 9.74466 8.92019 9.72451 8.98972 9.69811C9.14966 9.63723 9.29647 9.54309 9.4197 9.41985C9.64887 9.19054 9.77778 8.87976 9.77778 8.55556V1.22222C9.77778 0.898017 9.64887 0.58724 9.4197 0.357924C9.19054 0.128757 8.87961 0 8.55556 0H1.22222ZM7.33333 19.5556H2.44444V14.6667H7.33333V19.5556ZM19.5556 7.33333H14.6667V2.44444H19.5556V7.33333ZM7.33333 7.33333H2.44444V2.44444H7.33333V7.33333ZM20.7778 12.2222H13.4444C13.1204 12.2222 12.8095 12.351 12.5803 12.5801C12.4762 12.6844 12.3926 12.8056 12.3326 12.9372C12.2909 13.0285 12.2604 13.125 12.2422 13.2244C12.2291 13.2964 12.2222 13.37 12.2222 13.4444V20.7778C12.2222 20.8346 12.2261 20.891 12.2339 20.9467C12.2521 21.0775 12.2914 21.2042 12.3499 21.3218C12.4084 21.4392 12.4857 21.5475 12.5803 21.6421C12.7077 21.7696 12.8608 21.866 13.027 21.9264C13.1595 21.9746 13.3006 22 13.4444 22H20.7778C21.1018 22 21.4128 21.8712 21.6419 21.6421C21.8711 21.4128 22 21.102 22 20.7778V13.4444C22 13.1202 21.8711 12.8095 21.6419 12.5801C21.4128 12.351 21.1018 12.2222 20.7778 12.2222ZM19.5556 19.5556H14.6667V14.6667H19.5556V19.5556Z" fill="#A4A9B3"/>
</svg>
