<svg width="21" height="14" viewBox="0 0 21 14" fill="none" xmlns="http://www.w3.org/2000/svg">
<path d="M20.6741 11.7393H0.4358C0.349227 11.7393 0.266199 11.8183 0.204983 11.9589C0.143766 12.0996 0.109375 12.2903 0.109375 12.4893C0.109375 12.6882 0.143766 12.8789 0.204983 13.0196C0.266199 13.1602 0.349227 13.2393 0.4358 13.2393H20.6741C20.7607 13.2393 20.8437 13.1602 20.905 13.0196C20.9662 12.8789 21.0006 12.6882 21.0006 12.4893C21.0006 12.2903 20.9662 12.0996 20.905 11.9589C20.8437 11.8183 20.7607 11.7393 20.6741 11.7393Z" fill="#4F4F4F"/>
<path d="M20.6741 5.87402H10.5549C10.4684 5.87402 10.3853 5.95304 10.3241 6.09369C10.2629 6.23435 10.2285 6.42511 10.2285 6.62402C10.2285 6.82294 10.2629 7.0137 10.3241 7.15435C10.3853 7.29501 10.4684 7.37402 10.5549 7.37402H20.6741C20.7607 7.37402 20.8437 7.29501 20.9049 7.15435C20.9661 7.0137 21.0005 6.82294 21.0005 6.62402C21.0005 6.42511 20.9661 6.23435 20.9049 6.09369C20.8437 5.95304 20.7607 5.87402 20.6741 5.87402Z" fill="#4F4F4F"/>
<path d="M20.6736 1.5C20.7601 1.5 20.8432 1.42098 20.9044 1.28033C20.9656 1.13968 21 0.948912 21 0.75C21 0.551088 20.9656 0.360322 20.9044 0.21967C20.8432 0.0790176 20.7601 0 20.6736 0L0.326425 0C0.239852 0 0.156824 0.0790176 0.0956076 0.21967C0.0343911 0.360322 0 0.551088 0 0.75C0 0.948912 0.0343911 1.13968 0.0956076 1.28033C0.156824 1.42098 0.239852 1.5 0.326425 1.5H20.6736Z" fill="#4F4F4F"/>
</svg>
