<svg width="22" height="20" viewBox="0 0 22 20" fill="none" xmlns="http://www.w3.org/2000/svg">
<path d="M21.9662 16.962L20.9187 12.9186L17.6191 0.777996C17.5478 0.51019 17.3733 0.281554 17.1337 0.142158C16.8942 0.00276109 16.6092 -0.0360352 16.3411 0.0342649L12.2873 1.08177C12.1905 0.974555 12.0727 0.8885 11.9411 0.829013C11.8095 0.769526 11.667 0.737891 11.5226 0.736095H1.04751C0.769692 0.736095 0.503254 0.846458 0.306808 1.0429C0.110362 1.23935 0 1.50579 0 1.7836V18.5437C0 18.8216 0.110362 19.088 0.306808 19.2844C0.503254 19.4809 0.769692 19.5912 1.04751 19.5912H11.5226C11.8004 19.5912 12.0668 19.4809 12.2633 19.2844C12.4597 19.088 12.5701 18.8216 12.5701 18.5437V10.1637L14.8746 18.7742C14.936 19.0027 15.073 19.2037 15.2632 19.3445C15.4534 19.4852 15.6856 19.5574 15.9221 19.5493C16.0126 19.5596 16.104 19.5596 16.1945 19.5493L21.2539 18.1981C21.3877 18.1623 21.513 18.1004 21.6227 18.0159C21.7324 17.9314 21.8242 17.826 21.8929 17.7057C22.0034 17.474 22.0294 17.2109 21.9662 16.962ZM5.20612 17.5381H2.06359V15.4431H5.20612V17.5381ZM5.20612 13.3481H2.06359V7.06305H5.20612V13.3481ZM5.20612 4.96803H2.06359V2.87301H5.20612V4.96803ZM10.4437 17.5381H7.30113V15.4431H10.4437V17.5381ZM10.4437 13.3481H7.30113V7.06305H10.4437V13.3481ZM10.4437 4.96803H7.30113V2.87301H10.4437V4.96803ZM12.8006 3.14536L15.8383 2.32831L16.383 4.35L13.3453 5.16706L12.8006 3.14536ZM15.5136 13.2643L13.89 7.18875L16.9277 6.37169L18.5514 12.4472L15.5136 13.2643ZM16.5611 17.3077L16.0164 15.286L19.0542 14.4689L19.5989 16.4906L16.5611 17.3077Z" fill="#A4A9B3"/>
</svg>
