<svg width="22" height="20" viewBox="0 0 22 20" fill="none" xmlns="http://www.w3.org/2000/svg">
<path d="M21.142 9.9C21.6896 9.2976 21.9951 8.51406 22 7.7C22 6.82478 21.6523 5.98542 21.0335 5.36655C20.4146 4.74768 19.5752 4.4 18.7 4.4H13.002C13.1777 3.90299 13.2318 3.37113 13.1598 2.84892C13.0877 2.32671 12.8916 1.82937 12.5878 1.39852C12.2841 0.967674 11.8816 0.615865 11.4139 0.372546C10.9463 0.129227 10.4272 0.00148006 9.9 0H3.3C2.42479 0 1.58542 0.347678 0.966548 0.966548C0.347678 1.58542 0 2.42479 0 3.3C0.00485167 4.11406 0.310432 4.8976 0.858 5.5C0.31685 6.10502 0.0176748 6.88827 0.0176748 7.7C0.0176748 8.51172 0.31685 9.29497 0.858 9.9C0.31685 10.505 0.0176748 11.2883 0.0176748 12.1C0.0176748 12.9117 0.31685 13.695 0.858 14.3C0.310432 14.9024 0.00485167 15.6859 0 16.5C0 17.3752 0.347678 18.2146 0.966548 18.8335C1.58542 19.4523 2.42479 19.8 3.3 19.8H18.7C19.3355 19.7966 19.9566 19.6098 20.4885 19.2619C21.0204 18.9141 21.4405 18.42 21.6984 17.8392C21.9563 17.2583 22.041 16.6153 21.9423 15.9875C21.8436 15.3597 21.5657 14.7737 21.142 14.3C21.6831 13.695 21.9823 12.9117 21.9823 12.1C21.9823 11.2883 21.6831 10.505 21.142 9.9ZM9.9 17.6H3.3C3.00826 17.6 2.72847 17.4841 2.52218 17.2778C2.31589 17.0715 2.2 16.7917 2.2 16.5C2.2 16.2083 2.31589 15.9285 2.52218 15.7222C2.72847 15.5159 3.00826 15.4 3.3 15.4H9.9C10.1917 15.4 10.4715 15.5159 10.6778 15.7222C10.8841 15.9285 11 16.2083 11 16.5C11 16.7917 10.8841 17.0715 10.6778 17.2778C10.4715 17.4841 10.1917 17.6 9.9 17.6ZM9.9 13.2H3.3C3.00826 13.2 2.72847 13.0841 2.52218 12.8778C2.31589 12.6715 2.2 12.3917 2.2 12.1C2.2 11.8083 2.31589 11.5285 2.52218 11.3222C2.72847 11.1159 3.00826 11 3.3 11H9.9C10.1917 11 10.4715 11.1159 10.6778 11.3222C10.8841 11.5285 11 11.8083 11 12.1C11 12.3917 10.8841 12.6715 10.6778 12.8778C10.4715 13.0841 10.1917 13.2 9.9 13.2ZM9.9 8.8H3.3C3.00826 8.8 2.72847 8.68411 2.52218 8.47782C2.31589 8.27153 2.2 7.99174 2.2 7.7C2.2 7.40826 2.31589 7.12847 2.52218 6.92218C2.72847 6.71589 3.00826 6.6 3.3 6.6H9.9C10.1917 6.6 10.4715 6.71589 10.6778 6.92218C10.8841 7.12847 11 7.40826 11 7.7C11 7.99174 10.8841 8.27153 10.6778 8.47782C10.4715 8.68411 10.1917 8.8 9.9 8.8ZM9.9 4.4H3.3C3.00826 4.4 2.72847 4.28411 2.52218 4.07782C2.31589 3.87153 2.2 3.59174 2.2 3.3C2.2 3.00826 2.31589 2.72847 2.52218 2.52218C2.72847 2.31589 3.00826 2.2 3.3 2.2H9.9C10.1917 2.2 10.4715 2.31589 10.6778 2.52218C10.8841 2.72847 11 3.00826 11 3.3C11 3.59174 10.8841 3.87153 10.6778 4.07782C10.4715 4.28411 10.1917 4.4 9.9 4.4ZM19.459 17.281C19.3615 17.3838 19.2437 17.4653 19.113 17.5202C18.9824 17.5751 18.8417 17.6023 18.7 17.6H13.002C13.2658 16.8904 13.2658 16.1096 13.002 15.4H18.7C18.9917 15.4 19.2715 15.5159 19.4778 15.7222C19.6841 15.9285 19.8 16.2083 19.8 16.5C19.798 16.6463 19.7668 16.7908 19.7082 16.9249C19.6497 17.059 19.5649 17.18 19.459 17.281ZM19.459 12.881C19.3615 12.9838 19.2437 13.0653 19.113 13.1202C18.9824 13.1751 18.8417 13.2023 18.7 13.2H13.002C13.2658 12.4904 13.2658 11.7096 13.002 11H18.7C18.9917 11 19.2715 11.1159 19.4778 11.3222C19.6841 11.5285 19.8 11.8083 19.8 12.1C19.798 12.2463 19.7668 12.3908 19.7082 12.5249C19.6497 12.659 19.5649 12.78 19.459 12.881ZM19.459 8.481C19.3615 8.58385 19.2437 8.66531 19.113 8.72023C18.9824 8.77514 18.8417 8.8023 18.7 8.8H13.002C13.2658 8.09039 13.2658 7.30961 13.002 6.6H18.7C18.9917 6.6 19.2715 6.71589 19.4778 6.92218C19.6841 7.12847 19.8 7.40826 19.8 7.7C19.798 7.84632 19.7668 7.99076 19.7082 8.12486C19.6497 8.25897 19.5649 8.38004 19.459 8.481Z" fill="#A4A9B3"/>
</svg>
