<svg width="22" height="22" viewBox="0 0 22 22" fill="none" xmlns="http://www.w3.org/2000/svg">
<path d="M21.9732 4.12134C21.9333 3.9809 21.8642 3.84929 21.7698 3.73413C21.6755 3.61898 21.5578 3.52255 21.4236 3.45044L15.3435 0.150923C15.2108 0.0777479 15.0639 0.029939 14.9115 0.0102374C14.7591 -0.00946416 14.604 -0.000671242 14.4552 0.0361122C14.3064 0.0728956 14.1667 0.136946 14.0443 0.224592C13.9218 0.312237 13.819 0.421754 13.7416 0.546864L11.0056 5.01221L8.2695 0.546864C8.19214 0.421754 8.08929 0.312237 7.96684 0.224592C7.84439 0.136946 7.70476 0.0728956 7.55594 0.0361122C7.40713 -0.000671242 7.25206 -0.00946416 7.09962 0.0102374C6.94718 0.029939 6.80038 0.0777479 6.66762 0.150923L0.58749 3.45044C0.453296 3.52255 0.335634 3.61898 0.241306 3.73413C0.146978 3.84929 0.0778566 3.9809 0.037939 4.12134C-0.0394463 4.40009 0.00253768 4.69627 0.154865 4.94622L4.83189 12.4581C4.31011 13.3573 4.02164 14.3597 3.99003 15.3837C3.98724 16.3826 4.22561 17.3692 4.68716 18.2689C5.14871 19.1686 5.82138 19.958 6.65448 20.5775C7.48757 21.1971 8.45933 21.6306 9.49649 21.8455C10.5337 22.0604 11.6091 22.051 12.6419 21.818C13.6746 21.585 14.6376 21.1345 15.4583 20.5004C16.279 19.8664 16.9359 19.0654 17.3796 18.1577C17.8232 17.2501 18.0421 16.2596 18.0195 15.2608C17.9969 14.2621 17.7336 13.2812 17.2494 12.3921L21.8095 4.95721C21.8944 4.83507 21.9525 4.69826 21.9807 4.55475C22.0088 4.41125 22.0062 4.26391 21.9732 4.12134ZM2.82077 4.80324L6.8664 2.60356L10.6314 8.78465C9.02651 8.87792 7.50573 9.49209 6.32854 10.5224L2.82077 4.80324ZM11.0056 19.783C9.76514 19.783 8.57552 19.3195 7.69841 18.4945C6.8213 17.6695 6.32854 16.5505 6.32854 15.3837C6.32854 14.2169 6.8213 13.0979 7.69841 12.2729C8.57552 11.4478 9.76514 10.9843 11.0056 10.9843C12.246 10.9843 13.4356 11.4478 14.3127 12.2729C15.1898 13.0979 15.6826 14.2169 15.6826 15.3837C15.6826 16.5505 15.1898 17.6695 14.3127 18.4945C13.4356 19.3195 12.246 19.783 11.0056 19.783ZM15.6826 10.4894C15.0478 9.944 14.3102 9.51503 13.5078 9.22459L12.3619 7.21188L15.1915 2.60356L19.2371 4.80324L15.6826 10.4894Z" fill="#A4A9B3"/>
</svg>
